<svg width="32"  viewBox="0 0 33 35" fill="none" xmlns="http://www.w3.org/2000/svg">
<ellipse cx="16.5" cy="17.3298" rx="16.5" ry="17.305" fill="#517655"/>
<path d="M16.5 8.5602C19.3035 8.5602 19.636 8.57156 20.7429 8.62645C21.8874 8.68323 23.066 8.96525 23.8999 9.86713C24.7416 10.7775 24.9945 12.04 25.047 13.2816C25.0977 14.4788 25.1082 14.8384 25.1082 17.8705C25.1082 20.9027 25.0977 21.2623 25.047 22.4595C24.9954 23.6907 24.7285 24.9777 23.8999 25.874C23.0581 26.7844 21.8918 27.0579 20.7429 27.1146C19.636 27.1695 19.3035 27.1809 16.5 27.1809C13.6965 27.1809 13.364 27.1695 12.2571 27.1146C11.1275 27.0588 9.92175 26.7635 9.10013 25.874C8.26275 24.9683 8.0055 23.6935 7.953 22.4595C7.90225 21.2623 7.89175 20.9027 7.89175 17.8705C7.89175 14.8384 7.90225 14.4788 7.953 13.2816C8.00463 12.0551 8.27413 10.7605 9.10013 9.86713C9.94012 8.95862 11.1118 8.68323 12.2571 8.62645C13.364 8.57156 13.6965 8.5602 16.5 8.5602ZM16.5 6.51416C13.6484 6.51416 13.2905 6.52741 12.1705 6.5823C10.5474 6.66274 8.93562 7.15106 7.76225 8.42014C6.5845 9.69395 6.13737 11.4334 6.063 13.1879C6.01225 14.3993 6 14.7863 6 17.8705C6 20.9547 6.01225 21.3418 6.063 22.5532C6.13737 24.3068 6.59062 26.0547 7.76225 27.3209C8.93913 28.5938 10.55 29.0783 12.1705 29.1588C13.2905 29.2137 13.6484 29.2269 16.5 29.2269C19.3516 29.2269 19.7095 29.2137 20.8295 29.1588C22.4517 29.0783 24.0653 28.5891 25.2378 27.3209C26.4164 26.0462 26.8626 24.3077 26.937 22.5532C26.9877 21.3418 27 20.9547 27 17.8705C27 14.7863 26.9877 14.3993 26.937 13.1879C26.8626 11.4324 26.4102 9.68827 25.2378 8.42014C24.0626 7.14917 22.4474 6.66179 20.8295 6.5823C19.7095 6.52741 19.3516 6.51416 16.5 6.51416Z" fill="white"/>
<path d="M16.5 12.0391C13.5224 12.0391 11.1083 14.6501 11.1083 17.8706C11.1083 21.091 13.5224 23.7021 16.5 23.7021C19.4777 23.7021 21.8918 21.091 21.8918 17.8706C21.8918 14.6501 19.4777 12.0391 16.5 12.0391ZM16.5 21.656C14.5672 21.656 13 19.9611 13 17.8706C13 15.78 14.5672 14.0851 16.5 14.0851C18.4329 14.0851 20 15.78 20 17.8706C20 19.9611 18.4329 21.656 16.5 21.656Z" fill="white"/>
<path d="M22.1052 13.1709C22.8011 13.1709 23.3652 12.5608 23.3652 11.8081C23.3652 11.0555 22.8011 10.4454 22.1052 10.4454C21.4093 10.4454 20.8452 11.0555 20.8452 11.8081C20.8452 12.5608 21.4093 13.1709 22.1052 13.1709Z" fill="white"/>
</svg>
