<svg width="53" height="26" viewBox="0 0 53 26" fill="none" xmlns="http://www.w3.org/2000/svg">
<rect width="53" height="26" rx="8" fill="#755071"/>
<path d="M26.6528 12.7535H25.2917V11.3437C25.2917 10.9545 24.987 10.6389 24.6111 10.6389C24.2353 10.6389 23.9306 10.9545 23.9306 11.3437V12.7535H22.5695C22.1936 12.7535 21.8889 13.069 21.8889 13.4583C21.8889 13.8476 22.1936 14.1632 22.5695 14.1632H23.9306V15.5729C23.9306 15.9622 24.2353 16.2778 24.6111 16.2778C24.987 16.2778 25.2917 15.9622 25.2917 15.5729V14.1632H26.6528C27.0287 14.1632 27.3333 13.8476 27.3333 13.4583C27.3333 13.069 27.0287 12.7535 26.6528 12.7535Z" fill="white"/>
<path d="M17.125 13.4583C19.3802 13.4583 21.2084 11.5649 21.2084 9.22916C21.2084 6.89346 19.3802 5 17.125 5C14.8699 5 13.0417 6.89346 13.0417 9.22916C13.0417 11.5649 14.8699 13.4583 17.125 13.4583Z" fill="white"/>
<path d="M17.125 14.8681C13.7438 14.872 11.0038 17.7099 11 21.2118C11 21.6011 11.3047 21.9167 11.6806 21.9167H22.5695C22.9453 21.9167 23.25 21.6011 23.25 21.2118C23.2463 17.7099 20.5062 14.8719 17.125 14.8681Z" fill="white"/>
<path d="M39.4883 5.625C40.875 5.625 41.959 6.11979 42.7402 7.10938C43.6712 8.28125 44.1367 10.2246 44.1367 12.9395C44.1367 15.6478 43.668 17.5944 42.7305 18.7793C41.9557 19.7559 40.875 20.2441 39.4883 20.2441C38.0951 20.2441 36.972 19.7103 36.1191 18.6426C35.2663 17.5684 34.8398 15.6576 34.8398 12.9102C34.8398 10.2148 35.3086 8.27474 36.2461 7.08984C37.0208 6.11328 38.1016 5.625 39.4883 5.625ZM39.4883 7.90039C39.1562 7.90039 38.86 8.00781 38.5996 8.22266C38.3392 8.43099 38.1374 8.80859 37.9941 9.35547C37.8053 10.0651 37.7109 11.2598 37.7109 12.9395C37.7109 14.6191 37.7956 15.7747 37.9648 16.4062C38.1341 17.0312 38.3457 17.4479 38.5996 17.6562C38.86 17.8646 39.1562 17.9688 39.4883 17.9688C39.8203 17.9688 40.1165 17.8646 40.377 17.6562C40.6374 17.4414 40.8392 17.0605 40.9824 16.5137C41.1712 15.8105 41.2656 14.6191 41.2656 12.9395C41.2656 11.2598 41.181 10.1074 41.0117 9.48242C40.8424 8.85091 40.6276 8.43099 40.3672 8.22266C40.1133 8.00781 39.8203 7.90039 39.4883 7.90039Z" fill="white"/>
</svg>
