<svg width="32" viewBox="0 0 33 35" fill="none" xmlns="http://www.w3.org/2000/svg">
<ellipse cx="16.5" cy="17.6277" rx="16.5" ry="17.305" fill="#517655"/>
<path d="M16.2962 12C15.6443 12 15.007 12.2091 14.4649 12.6008C13.9229 12.9926 13.5004 13.5493 13.2509 14.2008C13.0014 14.8522 12.9362 15.569 13.0633 16.2605C13.1905 16.9521 13.5045 17.5873 13.9654 18.0859C14.4264 18.5845 15.0137 18.924 15.6531 19.0616C16.2926 19.1991 16.9553 19.1285 17.5576 18.8587C18.1599 18.5889 18.6747 18.1319 19.0369 17.5457C19.3991 16.9594 19.5924 16.2701 19.5924 15.565C19.5924 14.6195 19.2451 13.7128 18.627 13.0442C18.0088 12.3756 17.1704 12 16.2962 12ZM16.2962 17.3476C15.9702 17.3476 15.6516 17.243 15.3806 17.0472C15.1095 16.8513 14.8983 16.5729 14.7736 16.2472C14.6488 15.9215 14.6162 15.5631 14.6798 15.2173C14.7434 14.8715 14.9003 14.5539 15.1308 14.3046C15.3613 14.0553 15.655 13.8856 15.9747 13.8168C16.2944 13.748 16.6258 13.7833 16.9269 13.9182C17.2281 14.0531 17.4855 14.2816 17.6666 14.5747C17.8476 14.8679 17.9443 15.2125 17.9443 15.565C17.9443 16.0378 17.7707 16.4912 17.4616 16.8255C17.1525 17.1598 16.7333 17.3476 16.2962 17.3476Z" fill="white"/>
<path d="M16.2858 28.392C15.5919 28.3959 14.9073 28.2199 14.2892 27.8787C13.6711 27.5376 13.1376 27.0412 12.7334 26.4313C9.59289 21.7459 8 18.2237 8 15.9616C8 13.5849 8.87297 11.3054 10.4269 9.6248C11.9808 7.94417 14.0883 7 16.2858 7C18.4834 7 20.5909 7.94417 22.1448 9.6248C23.6987 11.3054 24.5717 13.5849 24.5717 15.9616C24.5717 18.2237 22.9788 21.7459 19.8383 26.4313C19.434 27.0412 18.9005 27.5376 18.2825 27.8787C17.6644 28.2199 16.9797 28.3959 16.2858 28.392ZM16.2858 8.94562C14.5656 8.94775 12.9163 9.6878 11.6999 11.0034C10.4835 12.3191 9.79922 14.1028 9.79726 15.9634C9.79726 17.7548 11.3572 21.0677 14.1886 25.2914C14.429 25.6494 14.7443 25.9409 15.1089 26.1419C15.4734 26.3428 15.8767 26.4476 16.2858 26.4476C16.695 26.4476 17.0983 26.3428 17.4628 26.1419C17.8273 25.9409 18.1427 25.6494 18.383 25.2914C21.2145 21.0677 22.7744 17.7548 22.7744 15.9634C22.7725 14.1028 22.0882 12.3191 20.8718 11.0034C19.6554 9.6878 18.0061 8.94775 16.2858 8.94562Z" fill="white"/>
</svg>
