<svg width="32"  viewBox="0 0 33 35" fill="none" xmlns="http://www.w3.org/2000/svg">
<ellipse cx="16.5" cy="17.4397" rx="16.5" ry="17.305" fill="#517655"/>
<path d="M27.4364 21.1375L19.1246 17.0497C19.0958 17.0352 19.0671 17.0238 19.0383 17.0124C18.3407 16.7554 17.5837 16.9451 17.0624 17.5089C16.5411 18.0727 16.3658 18.8915 16.6389 19.7383L20.4182 28.7295C20.5706 29.0933 20.9031 29.3296 21.2729 29.3369H21.2912C21.6534 29.3369 21.9859 29.1151 22.1488 28.7637L23.9225 24.9268L27.4699 23.0083C27.8005 22.829 28.0065 22.4621 27.9998 22.062C27.9931 21.663 27.7747 21.3033 27.4383 21.1375H27.4364ZM17.3729 27.2204C17.2081 27.236 17.0423 27.2474 16.8746 27.2547C16.2345 26.5696 14.5652 24.6449 13.4019 22.0807H14.1033C14.6323 22.0807 15.0616 21.6174 15.0616 21.0442C15.0616 20.4711 14.6323 20.0078 14.1033 20.0078H12.6372C12.3584 19.0211 12.1869 17.9763 12.1869 16.8984C12.1869 15.8205 12.3593 14.7768 12.6391 13.7891H20.3597C20.4728 14.1902 20.5686 14.6006 20.6424 15.0193C20.7421 15.5821 21.2452 15.9532 21.7626 15.8433C22.282 15.7366 22.6231 15.1935 22.5244 14.6317C22.4746 14.3467 22.4152 14.0658 22.3491 13.7891H25.6004C25.6128 13.7891 25.6263 13.7891 25.6387 13.7891C25.9252 14.7716 26.0795 15.8164 26.0795 16.8995C26.0795 17.2177 26.0661 17.5317 26.0402 17.8426C25.9933 18.4127 26.3814 18.9164 26.9084 18.9682C27.4373 19.0242 27.9021 18.5992 27.9491 18.0292C27.9797 17.6571 27.996 17.2798 27.996 16.8995C27.9979 10.0402 22.8397 4.461 16.499 4.461C10.1582 4.461 5 10.0402 5 16.8984C5 23.7566 10.1582 29.3358 16.498 29.3358C16.8497 29.3358 17.1975 29.3182 17.5406 29.2851C18.0676 29.2343 18.4576 28.7316 18.4107 28.1605C18.3637 27.5915 17.9009 27.1707 17.3729 27.2204ZM10.646 20.0078H7.39562C7.38316 20.0078 7.3707 20.0078 7.35729 20.0078C7.07077 19.0252 6.91649 17.9805 6.91649 16.8974C6.91649 15.8143 7.07077 14.7696 7.35729 13.787C7.36974 13.787 7.3822 13.787 7.39562 13.787H10.646C10.4112 14.7768 10.2704 15.8174 10.2704 16.8964C10.2704 17.9753 10.4103 19.0159 10.646 20.0057V20.0078ZM13.4067 11.7162C14.3851 9.56345 15.7209 7.85642 16.5009 6.96092C17.2818 7.85538 18.6176 9.55931 19.596 11.7162H13.4067ZM24.7955 11.7162H21.7022C20.9443 9.76141 19.8931 8.10102 18.9885 6.88941C21.4598 7.60974 23.5392 9.37378 24.7955 11.7162ZM14.0075 6.89044C13.1029 8.10205 12.0508 9.76245 11.2938 11.7162H8.20246C9.45776 9.37378 11.5362 7.60974 14.0075 6.89044ZM8.20246 22.0807H11.2938C12.0508 24.0354 13.1029 25.6948 14.0075 26.9064C11.5372 26.1861 9.45872 24.422 8.20246 22.0807Z" fill="white"/>
</svg>
